<svg width="77" height="87" viewBox="0 0 77 87" fill="none" xmlns="http://www.w3.org/2000/svg">
<path d="M3.95005e-05 61.923V24.8516C-0.00389439 23.7391 0.286073 22.6454 0.840603 21.681C1.39513 20.7166 2.19455 19.9157 3.15798 19.3595L35.2865 0.82381C36.2477 0.274603 37.2088 0 38.3072 0C39.4056 0 40.504 0.274603 41.4651 0.82381L73.5937 19.3595C74.5548 19.9087 75.3786 20.7325 75.7905 21.6937C76.3397 22.6548 76.6143 23.7532 76.6143 24.8516V61.923C76.6143 63.0214 76.3397 64.1198 75.7905 65.081C75.2413 66.0421 74.4175 66.8659 73.5937 67.4151L41.4651 85.8135C40.505 86.3678 39.4158 86.6597 38.3072 86.6597C37.1985 86.6597 36.1094 86.3678 35.1492 85.8135L3.15798 67.4151C2.19455 66.8589 1.39513 66.058 0.840603 65.0936C0.286073 64.1292 -0.00389439 63.0355 3.95005e-05 61.923Z" fill="#1563FF"/>
<path d="M68.1015 23.3413L41.8769 8.23816C41.465 7.96356 41.0531 7.96356 40.6412 7.96356L39.4054 8.23816L38.5816 9.06197L38.4443 10.1604V24.7144L52.1745 32.5405C52.861 32.9525 53.5475 33.639 53.9594 34.3255C54.3713 35.012 54.6459 35.9731 54.6459 36.7969V52.5866L67.2777 59.8636L68.5134 60.1382L69.7491 59.8636C70.161 59.7263 70.4356 59.3144 70.5729 59.0398L70.8475 57.804V27.5977C70.8475 26.7739 70.5729 25.8128 70.161 25.1263C69.6118 24.3025 68.9253 23.7532 68.1015 23.3413Z" fill="#DCE8FF"/>
<path d="M22.2426 49.8406V34.0509L9.61086 26.7739C9.19895 26.4993 8.78705 26.4993 8.37514 26.4993L7.13943 26.7739L6.31562 27.5977L6.04102 28.8334V59.0398C6.04102 59.8636 6.31562 60.8247 6.72752 61.5112C7.13943 62.1977 7.82594 62.8842 8.51244 63.2961L34.737 78.3993L35.8355 78.6739L36.9339 78.3993C37.3458 78.262 37.6204 77.8501 37.7577 77.5755C38.0323 77.1636 38.0323 76.889 38.0323 76.4771V62.0604L24.714 54.0969C23.8902 53.685 23.341 52.9985 22.9291 52.312C22.5084 51.5539 22.2732 50.707 22.2426 49.8406Z" fill="#508AFF"/>
<path d="M38.4438 40.504V24.7143L25.812 17.4373C25.4001 17.1627 24.9882 17.1627 24.5763 17.1627L23.3406 17.4373L22.5168 18.2611L22.2422 19.4968V34.0508L35.835 41.877C36.5216 42.2889 37.2081 42.9754 37.62 43.6619C38.0319 44.3484 38.3065 45.3095 38.3065 46.1333V61.923L50.9382 69.2C51.3501 69.4746 51.762 69.4746 52.1739 69.4746L53.4096 69.2L54.2335 68.3762L54.5081 67.1405V52.7238L40.9152 44.8976C40.1469 44.4544 39.5121 43.8126 39.0773 43.0395C38.6424 42.2665 38.4236 41.3907 38.4438 40.504Z" fill="#96B9FF"/>
<path d="M52.0372 32.5405L38.4443 24.7143V40.504C38.4443 41.3278 38.7189 42.2889 39.1308 42.9754C39.5427 43.6619 40.2293 44.3484 40.9158 44.7603L54.6459 52.5865V36.9341C54.6459 36.1103 54.3713 35.1492 53.9594 34.4627C53.4102 33.6389 52.861 33.0897 52.0372 32.5405Z" fill="#EFF5FF"/>
<path d="M35.9727 41.8771L22.3799 34.0509V49.8406C22.3799 50.6644 22.6545 51.6255 23.0664 52.312C23.4783 52.9985 24.1648 53.685 24.8513 54.0969L38.4442 61.9231V46.2707C38.4442 45.4469 38.1696 44.4858 37.7577 43.7993C37.3458 42.9755 36.6593 42.289 35.9727 41.8771Z" fill="#B0CAFF"/>
</svg>
