<?xml version="1.0" encoding="utf-8"?>
<svg xmlns="http://www.w3.org/2000/svg" viewBox="0 0 1366.5 501.6">
  <style>
    .w { fill: #0a0f1c; }
    .b1 { fill: #1563ff; }
    .b2 { fill: #dce8ff; }
    .b3 { fill: #508aff; }
    .b4 { fill: #96b9ff; }
    .b5 { fill: #eff5ff; }
    .b6 { fill: #b0caff; }
  </style>
  <path class="b1" d="M24.3,346.2V155.3c0-11.6,6.2-22.2,16.2-28l165.3-95.5c10-5.8,22.3-5.8,32.3,0l165.7,95.5c9.9,5.9,15.9,16.5,15.8,28v190.9c0.1,11.5-5.9,22.1-15.8,28l-165.7,95.5c-10,5.8-22.3,5.8-32.3,0L40.5,374.7C30.4,368.8,24.2,358,24.3,346.2z"/>
  <path class="b2" d="M372.8,149.3L240,72.5c-5.7-3.3-12.9-1.4-16.2,4.3c-1.1,1.8-1.6,3.9-1.6,6v73.6l69.3,39.9c7.8,4.5,12.6,12.8,12.6,21.7v79.8l63.8,36.8c5.7,3.3,12.9,1.3,16.2-4.4c1-1.8,1.6-3.8,1.6-5.9V170.9C385.5,162,380.7,153.7,372.8,149.3z"/>
  <path class="b3" d="M140.5,283.4v-79.8l-63.8-36.8c-5.7-3.3-12.9-1.4-16.2,4.3c-1.1,1.8-1.6,3.9-1.6,6v153.5c0,9,4.8,17.2,12.6,21.7l132.9,76.8c5.7,3.3,12.9,1.4,16.2-4.3c1-1.7,1.6-3.7,1.6-5.7v-73.7L153,305.5C145.1,301,140.3,292.5,140.5,283.4z"/>
  <path class="b4" d="M222.1,236.3v-79.8l-63.8-36.8c-5.7-3.3-12.9-1.4-16.2,4.3c-1.1,1.8-1.6,3.9-1.6,6.1v73.7l69.1,39.9c7.8,4.5,12.6,12.7,12.6,21.7v79.8l63.8,36.9c5.7,3.3,12.9,1.4,16.2-4.3c1.1-1.8,1.6-3.9,1.6-6v-73.7l-69.1-40C226.8,253.5,222.1,245.2,222.1,236.3z"/>
  <path class="b5" d="M291.4,196.4l-69.1-39.9v79.8c0,9,4.7,17.2,12.5,21.7l69.2,39.9v-79.7C304,209.2,299.2,200.9,291.4,196.4z"/>
  <path class="b6" d="M209.6,243.6l-69.1-39.9v79.8c0,9,4.7,17.2,12.5,21.7l69.1,39.9v-79.8C222.1,256.3,217.3,248.1,209.6,243.6z"/>
  <path class="w" d="M657.8,137c14.4,0,25.7,8.1,28.1,22.3h21.6c-3.6-26.3-23.9-41.6-50.1-41.6c-30.9,0-54.2,22.5-54.2,60.8s23,60.8,54.2,60.8c28.1,0,46.8-18.2,50.1-40.8l-21.6-0.1c-2.7,13.9-14,21.7-28.2,21.7c-19.2,0-32.9-14.4-32.9-41.6C624.8,151.9,638.5,137,657.8,137z"/>
  <path class="w" d="M775.4,239.4c31,0,54.4-22.5,54.4-60.8s-23.3-60.8-54.4-60.8s-54.4,22.5-54.4,60.8S744.3,239.4,775.4,239.4z M775.4,137c19.3,0,32.8,14.6,32.8,41.6s-13.5,41.6-32.8,41.6s-32.8-14.6-32.8-41.6S756.2,137,775.4,137L775.4,137z"/>
  <polygon class="w" points="868.4,157.1 869.4,157.1 925.1,237.8 944.2,237.8 944.2,119.4 922.9,119.4 922.9,200.1 921.8,200.1 866.1,119.4 847,119.4 847,237.8 868.4,237.8 "/>
  <polygon class="w" points="1053.5,119.4 959.1,119.4 959.1,137.4 995.7,137.4 995.7,237.8 1016.9,237.8 1016.9,137.4 1053.5,137.4 "/>
  <path class="w" d="M1154.5,157.3c0-22.6-14.6-37.8-41.7-37.8h-44.4v118.3h21.4v-43.3h21.8l23.3,43.3h23.9l-25.6-46.9C1147.2,185.2,1154.5,173.3,1154.5,157.3z M1109.6,176.6h-19.8v-39.3h19.6c16,0,23.2,7.3,23.2,19.9S1125.5,176.6,1109.6,176.6z"/>
  <path class="w" d="M1222.5,117.8c-31.1,0-54.4,22.5-54.4,60.8s23.3,60.8,54.4,60.8s54.4-22.5,54.4-60.8S1253.5,117.8,1222.5,117.8z M1222.5,220.1c-19.2,0-32.8-14.6-32.8-41.6s13.6-41.6,32.8-41.6s32.8,14.6,32.8,41.6S1241.8,220.1,1222.5,220.1z"/>
  <polygon class="w" points="1314.3,219.8 1314.3,119.4 1292.9,119.4 1292.9,237.8 1366.5,237.8 1366.5,219.8 "/>
  <path class="w" d="M650.7,263.8h-44.4v118.4h21.4v-40h22.7c27.3,0,42-16.4,42-39.2C692.4,280.4,677.9,263.8,650.7,263.8z M647.5,324.6h-19.8v-42.8h19.7c16.1,0,23.2,8.7,23.2,21.3S663.4,324.6,647.5,324.6L647.5,324.6z"/>
  <polygon class="w" points="729.2,263.8 707.8,263.8 707.8,382.2 781.3,382.2 781.3,364.2 729.2,364.2 "/>
  <path class="w" d="M835.1,263.8l-41.7,118.4h22.9l9.8-29.2h44.5l9.8,29.2h22.9l-41.7-118.4H835.1z M831.9,335.8l16-47.7h0.9l16,47.7L831.9,335.8z"/>
  <polygon class="w" points="991.6,344.5 990.6,344.5 934.9,263.8 915.7,263.8 915.7,382.2 937.1,382.2 937.1,301.6 938.1,301.6 993.9,382.2 1012.9,382.2 1012.9,263.8 991.6,263.8 "/>
  <polygon class="w" points="1054.4,331.9 1106,331.9 1106,313.9 1054.4,313.9 1054.4,281.8 1110,281.8 1110,263.8 1033,263.8 1033,382.2 1110.4,382.2 1110.4,364.2 1054.4,364.2 "/>
</svg>
